<svg width="25" height="25" viewBox="0 0 25 25" fill="none" xmlns="http://www.w3.org/2000/svg">
<path d="M22.3958 4.16699H20.1388V5.55588H22.2222V20.8337H2.77774V5.55588H4.86107V4.16699H2.60413C2.44179 4.16971 2.28158 4.20437 2.13265 4.26901C1.98371 4.33365 1.84897 4.427 1.73612 4.54372C1.62326 4.66044 1.53451 4.79826 1.47492 4.94928C1.41534 5.10031 1.38609 5.2616 1.38885 5.42394V20.9656C1.38609 21.1279 1.41534 21.2892 1.47492 21.4403C1.53451 21.5913 1.62326 21.7291 1.73612 21.8458C1.84897 21.9625 1.98371 22.0559 2.13265 22.1205C2.28158 22.1852 2.44179 22.2198 2.60413 22.2225H22.3958C22.5581 22.2198 22.7183 22.1852 22.8673 22.1205C23.0162 22.0559 23.151 21.9625 23.2638 21.8458C23.3767 21.7291 23.4654 21.5913 23.525 21.4403C23.5846 21.2892 23.6138 21.1279 23.6111 20.9656V5.42394C23.6138 5.2616 23.5846 5.10031 23.525 4.94928C23.4654 4.79826 23.3767 4.66044 23.2638 4.54372C23.151 4.427 23.0162 4.33365 22.8673 4.26901C22.7183 4.20437 22.5581 4.16971 22.3958 4.16699Z" fill="#FF8200"/>
<path d="M5.55554 9.72266H6.94443V11.1115H5.55554V9.72266Z" fill="#FF8200"/>
<path d="M9.72217 9.72266H11.1111V11.1115H9.72217V9.72266Z" fill="#FF8200"/>
<path d="M13.8889 9.72266H15.2778V11.1115H13.8889V9.72266Z" fill="#FF8200"/>
<path d="M18.0555 9.72266H19.4444V11.1115H18.0555V9.72266Z" fill="#FF8200"/>
<path d="M5.55554 13.1943H6.94443V14.5832H5.55554V13.1943Z" fill="#FF8200"/>
<path d="M9.72217 13.1943H11.1111V14.5832H9.72217V13.1943Z" fill="#FF8200"/>
<path d="M13.8889 13.1943H15.2778V14.5832H13.8889V13.1943Z" fill="#FF8200"/>
<path d="M18.0555 13.1943H19.4444V14.5832H18.0555V13.1943Z" fill="#FF8200"/>
<path d="M5.55554 16.667H6.94443V18.0559H5.55554V16.667Z" fill="#FF8200"/>
<path d="M9.72217 16.667H11.1111V18.0559H9.72217V16.667Z" fill="#FF8200"/>
<path d="M13.8889 16.667H15.2778V18.0559H13.8889V16.667Z" fill="#FF8200"/>
<path d="M18.0555 16.667H19.4444V18.0559H18.0555V16.667Z" fill="#FF8200"/>
<path d="M6.94444 6.94423C7.12862 6.94423 7.30526 6.87106 7.43549 6.74083C7.56572 6.6106 7.63889 6.43396 7.63889 6.24978V2.08312C7.63889 1.89894 7.56572 1.7223 7.43549 1.59207C7.30526 1.46184 7.12862 1.38867 6.94444 1.38867C6.76027 1.38867 6.58363 1.46184 6.4534 1.59207C6.32316 1.7223 6.25 1.89894 6.25 2.08312V6.24978C6.25 6.43396 6.32316 6.6106 6.4534 6.74083C6.58363 6.87106 6.76027 6.94423 6.94444 6.94423Z" fill="#FF8200"/>
<path d="M18.0555 6.94423C18.2397 6.94423 18.4163 6.87106 18.5466 6.74083C18.6768 6.6106 18.75 6.43396 18.75 6.24978V2.08312C18.75 1.89894 18.6768 1.7223 18.5466 1.59207C18.4163 1.46184 18.2397 1.38867 18.0555 1.38867C17.8714 1.38867 17.6947 1.46184 17.5645 1.59207C17.4342 1.7223 17.3611 1.89894 17.3611 2.08312V6.24978C17.3611 6.43396 17.4342 6.6106 17.5645 6.74083C17.6947 6.87106 17.8714 6.94423 18.0555 6.94423Z" fill="#FF8200"/>
<path d="M9.02783 4.16699H15.9723V5.55588H9.02783V4.16699Z" fill="#FF8200"/>
</svg>
